<svg width="113" height="161" viewBox="0 0 113 161" fill="none" xmlns="http://www.w3.org/2000/svg">
<path d="M40.5128 30.3312L61.6228 51.3148V109.394L40.5128 130.378" stroke="white"/>
<path d="M112.511 0.354614L61.2439 51.3148V109.394L112.511 160.355" stroke="white"/>
<path d="M4.5127 34.3546H5.5127L1.5127 40.3546H0.512695L4.5127 34.3546Z" fill="white"/>
<path d="M9.5127 34.3546H10.5127L6.5127 40.3546H5.5127L9.5127 34.3546Z" fill="white"/>
<path d="M14.5127 34.3546H15.5127L11.5127 40.3546H10.5127L14.5127 34.3546Z" fill="white"/>
<path d="M19.5127 34.3546H20.5127L16.5127 40.3546H15.5127L19.5127 34.3546Z" fill="white"/>
<path d="M14.1484 84.9513L19.8057 90.6085L20.5127 89.9015L14.8555 84.2443L14.1484 84.9513ZM0 89.9005L0.707031 90.6075L6.36426 84.9503L5.65723 84.2433L0 89.9005ZM10.2598 77.8575C8.87905 77.8575 7.75977 78.9768 7.75977 80.3575C7.75977 81.7383 8.87905 82.8575 10.2598 82.8575C11.6405 82.8575 12.7598 81.7383 12.7598 80.3575C12.7598 78.9768 11.6405 77.8575 10.2598 77.8575ZM10.2598 78.8575C11.0882 78.8575 11.7598 79.5291 11.7598 80.3575C11.7598 81.186 11.0882 81.8575 10.2598 81.8575C9.43134 81.8575 8.75977 81.186 8.75977 80.3575C8.75977 79.5291 9.43134 78.8575 10.2598 78.8575ZM0.00390625 70.8087L5.66113 76.4659L6.36816 75.7589L0.710938 70.1017L0.00390625 70.8087ZM14.1406 75.7579L14.8477 76.465L20.5049 70.8077L19.7979 70.1007L14.1406 75.7579Z" fill="white"/>
<path d="M4.5127 126.355H5.5127L1.5127 120.355H0.512695L4.5127 126.355Z" fill="white"/>
<path d="M9.5127 126.355H10.5127L6.5127 120.355H5.5127L9.5127 126.355Z" fill="white"/>
<path d="M14.5127 126.355H15.5127L11.5127 120.355H10.5127L14.5127 126.355Z" fill="white"/>
<path d="M19.5127 126.355H20.5127L16.5127 120.355H15.5127L19.5127 126.355Z" fill="white"/>
</svg>
