<svg width="113" height="161" viewBox="0 0 113 161" fill="none" xmlns="http://www.w3.org/2000/svg">
<path d="M72.3508 30.3312L51.2407 51.3148V109.394L72.3508 130.378" stroke="white"/>
<path d="M0.352405 0.354614L51.6196 51.3148V109.394L0.352405 160.355" stroke="white"/>
<path d="M108.351 34.3546H107.351L111.351 40.3546H112.351L108.351 34.3546Z" fill="white"/>
<path d="M103.351 34.3546H102.351L106.351 40.3546H107.351L103.351 34.3546Z" fill="white"/>
<path d="M98.3508 34.3546H97.3508L101.351 40.3546H102.351L98.3508 34.3546Z" fill="white"/>
<path d="M93.3508 34.3546H92.3508L96.3508 40.3546H97.3508L93.3508 34.3546Z" fill="white"/>
<path d="M98.7151 84.9513L93.0579 90.6085L92.3508 89.9015L98.0081 84.2443L98.7151 84.9513ZM112.864 89.9005L112.156 90.6075L106.499 84.9503L107.206 84.2433L112.864 89.9005ZM102.604 77.8575C103.984 77.8575 105.104 78.9768 105.104 80.3575C105.104 81.7383 103.984 82.8575 102.604 82.8575C101.223 82.8575 100.104 81.7383 100.104 80.3575C100.104 78.9768 101.223 77.8575 102.604 77.8575ZM102.604 78.8575C101.775 78.8575 101.104 79.5291 101.104 80.3575C101.104 81.186 101.775 81.8575 102.604 81.8575C103.432 81.8575 104.104 81.186 104.104 80.3575C104.104 79.5291 103.432 78.8575 102.604 78.8575ZM112.86 70.8087L107.202 76.4659L106.495 75.7589L112.153 70.1017L112.86 70.8087ZM98.7229 75.7579L98.0159 76.465L92.3586 70.8077L93.0657 70.1007L98.7229 75.7579Z" fill="white"/>
<path d="M108.351 126.355H107.351L111.351 120.355H112.351L108.351 126.355Z" fill="white"/>
<path d="M103.351 126.355H102.351L106.351 120.355H107.351L103.351 126.355Z" fill="white"/>
<path d="M98.3508 126.355H97.3508L101.351 120.355H102.351L98.3508 126.355Z" fill="white"/>
<path d="M93.3508 126.355H92.3508L96.3508 120.355H97.3508L93.3508 126.355Z" fill="white"/>
</svg>
