<svg width="1940" height="980" viewBox="0 0 1940 980" fill="none" xmlns="http://www.w3.org/2000/svg">
<path d="M9.99609 0V20" stroke="white" stroke-opacity="0.2" stroke-width="2"/>
<path d="M20 9.99512L-4.17233e-07 9.99512" stroke="white" stroke-opacity="0.2" stroke-width="2"/>
<path d="M169.996 0V20" stroke="white" stroke-opacity="0.2" stroke-width="2"/>
<path d="M180 9.99512L160 9.99512" stroke="white" stroke-opacity="0.2" stroke-width="2"/>
<path d="M329.996 0V20" stroke="white" stroke-opacity="0.2" stroke-width="2"/>
<path d="M340 9.99512L320 9.99512" stroke="white" stroke-opacity="0.2" stroke-width="2"/>
<path d="M489.996 0V20" stroke="white" stroke-opacity="0.2" stroke-width="2"/>
<path d="M500 9.99512L480 9.99512" stroke="white" stroke-opacity="0.2" stroke-width="2"/>
<path d="M649.996 0V20" stroke="white" stroke-opacity="0.2" stroke-width="2"/>
<path d="M660 9.99512L640 9.99512" stroke="white" stroke-opacity="0.2" stroke-width="2"/>
<path d="M809.996 0V20" stroke="white" stroke-opacity="0.2" stroke-width="2"/>
<path d="M820 9.99512L800 9.99512" stroke="white" stroke-opacity="0.2" stroke-width="2"/>
<path d="M969.996 0V20" stroke="white" stroke-opacity="0.2" stroke-width="2"/>
<path d="M980 9.99512L960 9.99512" stroke="white" stroke-opacity="0.2" stroke-width="2"/>
<path d="M1130 0V20" stroke="white" stroke-opacity="0.2" stroke-width="2"/>
<path d="M1140 9.99512L1120 9.99512" stroke="white" stroke-opacity="0.2" stroke-width="2"/>
<path d="M1290 0V20" stroke="white" stroke-opacity="0.2" stroke-width="2"/>
<path d="M1300 9.99512L1280 9.99512" stroke="white" stroke-opacity="0.2" stroke-width="2"/>
<path d="M1450 0V20" stroke="white" stroke-opacity="0.2" stroke-width="2"/>
<path d="M1460 9.99512L1440 9.99512" stroke="white" stroke-opacity="0.2" stroke-width="2"/>
<path d="M1610 0V20" stroke="white" stroke-opacity="0.2" stroke-width="2"/>
<path d="M1620 9.99512L1600 9.99512" stroke="white" stroke-opacity="0.2" stroke-width="2"/>
<path d="M1770 0V20" stroke="white" stroke-opacity="0.2" stroke-width="2"/>
<path d="M1780 9.99512L1760 9.99512" stroke="white" stroke-opacity="0.2" stroke-width="2"/>
<path d="M1930 0V20" stroke="white" stroke-opacity="0.2" stroke-width="2"/>
<path d="M1940 9.99512L1920 9.99512" stroke="white" stroke-opacity="0.2" stroke-width="2"/>
<path d="M9.99609 160V180" stroke="white" stroke-opacity="0.2" stroke-width="2"/>
<path d="M20 169.995L-4.17233e-07 169.995" stroke="white" stroke-opacity="0.2" stroke-width="2"/>
<path d="M169.996 160V180" stroke="white" stroke-opacity="0.2" stroke-width="2"/>
<path d="M180 169.995L160 169.995" stroke="white" stroke-opacity="0.2" stroke-width="2"/>
<path d="M329.996 160V180" stroke="white" stroke-opacity="0.2" stroke-width="2"/>
<path d="M340 169.995L320 169.995" stroke="white" stroke-opacity="0.2" stroke-width="2"/>
<path d="M489.996 160V180" stroke="white" stroke-opacity="0.2" stroke-width="2"/>
<path d="M500 169.995L480 169.995" stroke="white" stroke-opacity="0.2" stroke-width="2"/>
<path d="M649.996 160V180" stroke="white" stroke-opacity="0.2" stroke-width="2"/>
<path d="M660 169.995L640 169.995" stroke="white" stroke-opacity="0.2" stroke-width="2"/>
<path d="M809.996 160V180" stroke="white" stroke-opacity="0.2" stroke-width="2"/>
<path d="M820 169.995L800 169.995" stroke="white" stroke-opacity="0.2" stroke-width="2"/>
<path d="M969.996 160V180" stroke="white" stroke-opacity="0.2" stroke-width="2"/>
<path d="M980 169.995L960 169.995" stroke="white" stroke-opacity="0.2" stroke-width="2"/>
<path d="M1130 160V180" stroke="white" stroke-opacity="0.2" stroke-width="2"/>
<path d="M1140 169.995L1120 169.995" stroke="white" stroke-opacity="0.2" stroke-width="2"/>
<path d="M1290 160V180" stroke="white" stroke-opacity="0.2" stroke-width="2"/>
<path d="M1300 169.995L1280 169.995" stroke="white" stroke-opacity="0.2" stroke-width="2"/>
<path d="M1450 160V180" stroke="white" stroke-opacity="0.2" stroke-width="2"/>
<path d="M1460 169.995L1440 169.995" stroke="white" stroke-opacity="0.2" stroke-width="2"/>
<path d="M1610 160V180" stroke="white" stroke-opacity="0.2" stroke-width="2"/>
<path d="M1620 169.995L1600 169.995" stroke="white" stroke-opacity="0.2" stroke-width="2"/>
<path d="M1770 160V180" stroke="white" stroke-opacity="0.2" stroke-width="2"/>
<path d="M1780 169.995L1760 169.995" stroke="white" stroke-opacity="0.2" stroke-width="2"/>
<path d="M1930 160V180" stroke="white" stroke-opacity="0.2" stroke-width="2"/>
<path d="M1940 169.995L1920 169.995" stroke="white" stroke-opacity="0.2" stroke-width="2"/>
<path d="M9.99609 320V340" stroke="white" stroke-opacity="0.2" stroke-width="2"/>
<path d="M20 329.995L-4.17233e-07 329.995" stroke="white" stroke-opacity="0.2" stroke-width="2"/>
<path d="M169.996 320V340" stroke="white" stroke-opacity="0.2" stroke-width="2"/>
<path d="M180 329.995L160 329.995" stroke="white" stroke-opacity="0.2" stroke-width="2"/>
<path d="M329.996 320V340" stroke="white" stroke-opacity="0.2" stroke-width="2"/>
<path d="M340 329.995L320 329.995" stroke="white" stroke-opacity="0.2" stroke-width="2"/>
<path d="M489.996 320V340" stroke="white" stroke-opacity="0.2" stroke-width="2"/>
<path d="M500 329.995L480 329.995" stroke="white" stroke-opacity="0.2" stroke-width="2"/>
<path d="M649.996 320V340" stroke="white" stroke-opacity="0.2" stroke-width="2"/>
<path d="M660 329.995L640 329.995" stroke="white" stroke-opacity="0.2" stroke-width="2"/>
<path d="M809.996 320V340" stroke="white" stroke-opacity="0.2" stroke-width="2"/>
<path d="M820 329.995L800 329.995" stroke="white" stroke-opacity="0.2" stroke-width="2"/>
<path d="M969.996 320V340" stroke="white" stroke-opacity="0.2" stroke-width="2"/>
<path d="M980 329.995L960 329.995" stroke="white" stroke-opacity="0.2" stroke-width="2"/>
<path d="M1130 320V340" stroke="white" stroke-opacity="0.2" stroke-width="2"/>
<path d="M1140 329.995L1120 329.995" stroke="white" stroke-opacity="0.2" stroke-width="2"/>
<path d="M1290 320V340" stroke="white" stroke-opacity="0.2" stroke-width="2"/>
<path d="M1300 329.995L1280 329.995" stroke="white" stroke-opacity="0.2" stroke-width="2"/>
<path d="M1450 320V340" stroke="white" stroke-opacity="0.2" stroke-width="2"/>
<path d="M1460 329.995L1440 329.995" stroke="white" stroke-opacity="0.2" stroke-width="2"/>
<path d="M1610 320V340" stroke="white" stroke-opacity="0.2" stroke-width="2"/>
<path d="M1620 329.995L1600 329.995" stroke="white" stroke-opacity="0.2" stroke-width="2"/>
<path d="M1770 320V340" stroke="white" stroke-opacity="0.2" stroke-width="2"/>
<path d="M1780 329.995L1760 329.995" stroke="white" stroke-opacity="0.2" stroke-width="2"/>
<path d="M1930 320V340" stroke="white" stroke-opacity="0.2" stroke-width="2"/>
<path d="M1940 329.995L1920 329.995" stroke="white" stroke-opacity="0.2" stroke-width="2"/>
<path d="M9.99609 480V500" stroke="white" stroke-opacity="0.2" stroke-width="2"/>
<path d="M20 489.995L-4.17233e-07 489.995" stroke="white" stroke-opacity="0.2" stroke-width="2"/>
<path d="M169.996 480V500" stroke="white" stroke-opacity="0.2" stroke-width="2"/>
<path d="M180 489.995L160 489.995" stroke="white" stroke-opacity="0.2" stroke-width="2"/>
<path d="M329.996 480V500" stroke="white" stroke-opacity="0.2" stroke-width="2"/>
<path d="M340 489.995L320 489.995" stroke="white" stroke-opacity="0.2" stroke-width="2"/>
<path d="M489.996 480V500" stroke="white" stroke-opacity="0.2" stroke-width="2"/>
<path d="M500 489.995L480 489.995" stroke="white" stroke-opacity="0.2" stroke-width="2"/>
<path d="M649.996 480V500" stroke="white" stroke-opacity="0.2" stroke-width="2"/>
<path d="M660 489.995L640 489.995" stroke="white" stroke-opacity="0.2" stroke-width="2"/>
<path d="M809.996 480V500" stroke="white" stroke-opacity="0.2" stroke-width="2"/>
<path d="M820 489.995L800 489.995" stroke="white" stroke-opacity="0.2" stroke-width="2"/>
<path d="M969.996 480V500" stroke="white" stroke-opacity="0.2" stroke-width="2"/>
<path d="M980 489.995L960 489.995" stroke="white" stroke-opacity="0.2" stroke-width="2"/>
<path d="M1130 480V500" stroke="white" stroke-opacity="0.2" stroke-width="2"/>
<path d="M1140 489.995L1120 489.995" stroke="white" stroke-opacity="0.2" stroke-width="2"/>
<path d="M1290 480V500" stroke="white" stroke-opacity="0.2" stroke-width="2"/>
<path d="M1300 489.995L1280 489.995" stroke="white" stroke-opacity="0.2" stroke-width="2"/>
<path d="M1450 480V500" stroke="white" stroke-opacity="0.2" stroke-width="2"/>
<path d="M1460 489.995L1440 489.995" stroke="white" stroke-opacity="0.2" stroke-width="2"/>
<path d="M1610 480V500" stroke="white" stroke-opacity="0.2" stroke-width="2"/>
<path d="M1620 489.995L1600 489.995" stroke="white" stroke-opacity="0.2" stroke-width="2"/>
<path d="M1770 480V500" stroke="white" stroke-opacity="0.2" stroke-width="2"/>
<path d="M1780 489.995L1760 489.995" stroke="white" stroke-opacity="0.2" stroke-width="2"/>
<path d="M1930 480V500" stroke="white" stroke-opacity="0.2" stroke-width="2"/>
<path d="M1940 489.995L1920 489.995" stroke="white" stroke-opacity="0.2" stroke-width="2"/>
<path d="M9.99609 640V660" stroke="white" stroke-opacity="0.2" stroke-width="2"/>
<path d="M20 649.995L-4.17233e-07 649.995" stroke="white" stroke-opacity="0.2" stroke-width="2"/>
<path d="M169.996 640V660" stroke="white" stroke-opacity="0.2" stroke-width="2"/>
<path d="M180 649.995L160 649.995" stroke="white" stroke-opacity="0.2" stroke-width="2"/>
<path d="M329.996 640V660" stroke="white" stroke-opacity="0.2" stroke-width="2"/>
<path d="M340 649.995L320 649.995" stroke="white" stroke-opacity="0.2" stroke-width="2"/>
<path d="M489.996 640V660" stroke="white" stroke-opacity="0.2" stroke-width="2"/>
<path d="M500 649.995L480 649.995" stroke="white" stroke-opacity="0.2" stroke-width="2"/>
<path d="M649.996 640V660" stroke="white" stroke-opacity="0.2" stroke-width="2"/>
<path d="M660 649.995L640 649.995" stroke="white" stroke-opacity="0.2" stroke-width="2"/>
<path d="M809.996 640V660" stroke="white" stroke-opacity="0.2" stroke-width="2"/>
<path d="M820 649.995L800 649.995" stroke="white" stroke-opacity="0.2" stroke-width="2"/>
<path d="M969.996 640V660" stroke="white" stroke-opacity="0.2" stroke-width="2"/>
<path d="M980 649.995L960 649.995" stroke="white" stroke-opacity="0.2" stroke-width="2"/>
<path d="M1130 640V660" stroke="white" stroke-opacity="0.2" stroke-width="2"/>
<path d="M1140 649.995L1120 649.995" stroke="white" stroke-opacity="0.2" stroke-width="2"/>
<path d="M1290 640V660" stroke="white" stroke-opacity="0.2" stroke-width="2"/>
<path d="M1300 649.995L1280 649.995" stroke="white" stroke-opacity="0.2" stroke-width="2"/>
<path d="M1450 640V660" stroke="white" stroke-opacity="0.2" stroke-width="2"/>
<path d="M1460 649.995L1440 649.995" stroke="white" stroke-opacity="0.2" stroke-width="2"/>
<path d="M1610 640V660" stroke="white" stroke-opacity="0.2" stroke-width="2"/>
<path d="M1620 649.995L1600 649.995" stroke="white" stroke-opacity="0.2" stroke-width="2"/>
<path d="M1770 640V660" stroke="white" stroke-opacity="0.2" stroke-width="2"/>
<path d="M1780 649.995L1760 649.995" stroke="white" stroke-opacity="0.2" stroke-width="2"/>
<path d="M1930 640V660" stroke="white" stroke-opacity="0.2" stroke-width="2"/>
<path d="M1940 649.995L1920 649.995" stroke="white" stroke-opacity="0.2" stroke-width="2"/>
<path d="M9.99609 800V820" stroke="white" stroke-opacity="0.2" stroke-width="2"/>
<path d="M20 809.995L-4.17233e-07 809.995" stroke="white" stroke-opacity="0.2" stroke-width="2"/>
<path d="M169.996 800V820" stroke="white" stroke-opacity="0.2" stroke-width="2"/>
<path d="M180 809.995L160 809.995" stroke="white" stroke-opacity="0.2" stroke-width="2"/>
<path d="M329.996 800V820" stroke="white" stroke-opacity="0.2" stroke-width="2"/>
<path d="M340 809.995L320 809.995" stroke="white" stroke-opacity="0.2" stroke-width="2"/>
<path d="M489.996 800V820" stroke="white" stroke-opacity="0.2" stroke-width="2"/>
<path d="M500 809.995L480 809.995" stroke="white" stroke-opacity="0.2" stroke-width="2"/>
<path d="M649.996 800V820" stroke="white" stroke-opacity="0.2" stroke-width="2"/>
<path d="M660 809.995L640 809.995" stroke="white" stroke-opacity="0.2" stroke-width="2"/>
<path d="M809.996 800V820" stroke="white" stroke-opacity="0.2" stroke-width="2"/>
<path d="M820 809.995L800 809.995" stroke="white" stroke-opacity="0.2" stroke-width="2"/>
<path d="M969.996 800V820" stroke="white" stroke-opacity="0.2" stroke-width="2"/>
<path d="M980 809.995L960 809.995" stroke="white" stroke-opacity="0.2" stroke-width="2"/>
<path d="M1130 800V820" stroke="white" stroke-opacity="0.2" stroke-width="2"/>
<path d="M1140 809.995L1120 809.995" stroke="white" stroke-opacity="0.2" stroke-width="2"/>
<path d="M1290 800V820" stroke="white" stroke-opacity="0.2" stroke-width="2"/>
<path d="M1300 809.995L1280 809.995" stroke="white" stroke-opacity="0.2" stroke-width="2"/>
<path d="M1450 800V820" stroke="white" stroke-opacity="0.2" stroke-width="2"/>
<path d="M1460 809.995L1440 809.995" stroke="white" stroke-opacity="0.2" stroke-width="2"/>
<path d="M1610 800V820" stroke="white" stroke-opacity="0.2" stroke-width="2"/>
<path d="M1620 809.995L1600 809.995" stroke="white" stroke-opacity="0.2" stroke-width="2"/>
<path d="M1770 800V820" stroke="white" stroke-opacity="0.2" stroke-width="2"/>
<path d="M1780 809.995L1760 809.995" stroke="white" stroke-opacity="0.2" stroke-width="2"/>
<path d="M1930 800V820" stroke="white" stroke-opacity="0.2" stroke-width="2"/>
<path d="M1940 809.995L1920 809.995" stroke="white" stroke-opacity="0.2" stroke-width="2"/>
<path d="M9.99609 960V980" stroke="white" stroke-opacity="0.2" stroke-width="2"/>
<path d="M20 969.995L-4.17233e-07 969.995" stroke="white" stroke-opacity="0.2" stroke-width="2"/>
<path d="M169.996 960V980" stroke="white" stroke-opacity="0.2" stroke-width="2"/>
<path d="M180 969.995L160 969.995" stroke="white" stroke-opacity="0.2" stroke-width="2"/>
<path d="M329.996 960V980" stroke="white" stroke-opacity="0.2" stroke-width="2"/>
<path d="M340 969.995L320 969.995" stroke="white" stroke-opacity="0.2" stroke-width="2"/>
<path d="M489.996 960V980" stroke="white" stroke-opacity="0.2" stroke-width="2"/>
<path d="M500 969.995L480 969.995" stroke="white" stroke-opacity="0.2" stroke-width="2"/>
<path d="M649.996 960V980" stroke="white" stroke-opacity="0.2" stroke-width="2"/>
<path d="M660 969.995L640 969.995" stroke="white" stroke-opacity="0.2" stroke-width="2"/>
<path d="M809.996 960V980" stroke="white" stroke-opacity="0.2" stroke-width="2"/>
<path d="M820 969.995L800 969.995" stroke="white" stroke-opacity="0.2" stroke-width="2"/>
<path d="M969.996 960V980" stroke="white" stroke-opacity="0.2" stroke-width="2"/>
<path d="M980 969.995L960 969.995" stroke="white" stroke-opacity="0.2" stroke-width="2"/>
<path d="M1130 960V980" stroke="white" stroke-opacity="0.2" stroke-width="2"/>
<path d="M1140 969.995L1120 969.995" stroke="white" stroke-opacity="0.2" stroke-width="2"/>
<path d="M1290 960V980" stroke="white" stroke-opacity="0.2" stroke-width="2"/>
<path d="M1300 969.995L1280 969.995" stroke="white" stroke-opacity="0.2" stroke-width="2"/>
<path d="M1450 960V980" stroke="white" stroke-opacity="0.2" stroke-width="2"/>
<path d="M1460 969.995L1440 969.995" stroke="white" stroke-opacity="0.2" stroke-width="2"/>
<path d="M1610 960V980" stroke="white" stroke-opacity="0.2" stroke-width="2"/>
<path d="M1620 969.995L1600 969.995" stroke="white" stroke-opacity="0.2" stroke-width="2"/>
<path d="M1770 960V980" stroke="white" stroke-opacity="0.2" stroke-width="2"/>
<path d="M1780 969.995L1760 969.995" stroke="white" stroke-opacity="0.2" stroke-width="2"/>
<path d="M1930 960V980" stroke="white" stroke-opacity="0.2" stroke-width="2"/>
<path d="M1940 969.995L1920 969.995" stroke="white" stroke-opacity="0.2" stroke-width="2"/>
</svg>
