<svg width="540" height="31" viewBox="0 0 540 31" fill="none" xmlns="http://www.w3.org/2000/svg">
<circle cx="7" cy="7" r="6" transform="rotate(180 7 7)" stroke="white" stroke-width="2"/>
<circle cx="7" cy="29" r="2" transform="rotate(180 7 29)" fill="white"/>
<path d="M38 19H37V16H38V19ZM38 13H37V1H38V13Z" fill="white"/>
<path d="M63 19H62V16H63V19ZM63 13H62V1H63V13Z" fill="white"/>
<path d="M88 19H87V16H88V19ZM88 13H87V1H88V13Z" fill="white"/>
<path d="M113 19H112V16H113V19ZM113 13H112V1H113V13Z" fill="white"/>
<path d="M138 19H137V16H138V19ZM138 13H137V1H138V13Z" fill="white"/>
<path d="M167.5 19H166.5V16H167.5V19ZM167.5 13H166.5V1H167.5V13Z" fill="white"/>
<path d="M201.5 19H200.5V16H201.5V19ZM201.5 13H200.5V1H201.5V13Z" fill="white"/>
<path d="M235.5 19H234.5V16H235.5V19ZM235.5 13H234.5V1H235.5V13Z" fill="white"/>
<path d="M276 1L270 7L264 1H276Z" fill="white"/>
<path d="M305.5 19H304.5V16H305.5V19ZM305.5 13H304.5V1H305.5V13Z" fill="white"/>
<path d="M339.5 19H338.5V16H339.5V19ZM339.5 13H338.5V1H339.5V13Z" fill="white"/>
<path d="M373.5 19H372.5V16H373.5V19ZM373.5 13H372.5V1H373.5V13Z" fill="white"/>
<path d="M403 19H402V16H403V19ZM403 13H402V1H403V13Z" fill="white"/>
<path d="M428 19H427V16H428V19ZM428 13H427V1H428V13Z" fill="white"/>
<path d="M453 19H452V16H453V19ZM453 13H452V1H453V13Z" fill="white"/>
<path d="M478 19H477V16H478V19ZM478 13H477V1H478V13Z" fill="white"/>
<path d="M503 19H502V16H503V19ZM503 13H502V1H503V13Z" fill="white"/>
<circle cx="533" cy="7" r="6" transform="rotate(180 533 7)" stroke="white" stroke-width="2"/>
<circle cx="533" cy="29" r="2" transform="rotate(180 533 29)" fill="white"/>
</svg>
